<svg width="1099" height="735" viewBox="0 0 1099 735" fill="none" xmlns="http://www.w3.org/2000/svg">
<path d="M1099 735L549.5 0L0 735H1099Z" fill="white"/>
<path d="M549.5 17L560.334 31.5C562.466 64.6602 564.562 96.7456 566.775 127.888L558.75 126V92C558.75 91.6852 558.602 91.3889 558.35 91.2L553.017 87.2C552.844 87.0702 552.633 87 552.417 87H546.583C546.367 87 546.156 87.0702 545.983 87.2L540.65 91.2C540.398 91.3889 540.25 91.6852 540.25 92V126L532.225 127.888C534.438 96.7456 536.534 64.6602 538.666 31.5L549.5 17Z" fill="#1E316C"/>
<path d="M486.445 146H472.531C471.88 146 471.403 145.389 471.561 144.757L472.102 142.591C472.193 142.228 472.479 141.946 472.843 141.86L487.355 138.446C489.055 123.994 490.564 109.18 491.878 94L84 639.983C200.912 633.647 301.194 586.952 373.811 484H334.21C333.918 484 333.641 483.872 333.451 483.651L330.991 480.781C330.835 480.6 330.75 480.369 330.75 480.13V474.312C330.75 473.839 331.081 473.43 331.544 473.333L388.797 461.309C410.012 427.009 428.51 387.229 443.966 341.5H381.664C381.399 341.5 381.145 341.395 380.957 341.207L378.043 338.293C377.855 338.105 377.75 337.851 377.75 337.586V330.31C377.75 329.838 378.08 329.43 378.542 329.332L452.807 313.565C461.206 285.179 468.523 254.689 474.692 222H442.626C442.383 222 442.149 221.912 441.967 221.753L439.689 219.759C439.081 219.227 439.322 218.232 440.105 218.036L477.102 208.787C480.644 188.673 483.763 167.752 486.445 146Z" fill="#1E316C"/>
<path d="M530.916 146H540.25V193L526.993 196.314C528.363 179.809 529.662 163.045 530.916 146Z" fill="#1E316C"/>
<path d="M524.781 222H540.25V295L516.84 299.97C519.792 274.579 522.4 248.621 524.781 222Z" fill="#1E316C"/>
<path d="M511.621 341.5H540.25V429.5L495.579 438.882C501.846 407.184 507.101 374.803 511.621 341.5Z" fill="#1E316C"/>
<path d="M485.843 484H540.25V726.952C515.347 726.827 445.501 726.5 397 726.5C438.442 646.686 466.264 567.388 485.843 484Z" fill="#1E316C"/>
<path d="M558.75 726.952V484H613.157C632.736 567.388 660.558 646.686 702 726.5C653.499 726.5 583.652 726.827 558.75 726.952Z" fill="#1E316C"/>
<path d="M710.203 461.309L767.456 473.333C767.918 473.43 768.25 473.839 768.25 474.312V480.13C768.25 480.369 768.165 480.6 768.009 480.781L765.549 483.651C765.359 483.872 765.082 484 764.79 484H725.189C797.806 586.952 898.088 633.647 1015 639.983L607.122 94C608.436 109.18 609.945 123.994 611.645 138.446L626.157 141.86C626.521 141.946 626.807 142.228 626.898 142.591L627.439 144.757C627.597 145.389 627.12 146 626.469 146H612.555C615.237 167.752 618.356 188.674 621.898 208.787L658.895 218.036C659.678 218.232 659.919 219.227 659.311 219.759L657.033 221.753C656.85 221.912 656.616 222 656.374 222H624.308C630.477 254.689 637.794 285.179 646.193 313.565L720.458 329.332C720.92 329.43 721.25 329.838 721.25 330.31V337.586C721.25 337.851 721.145 338.105 720.957 338.293L718.043 341.207C717.855 341.395 717.601 341.5 717.336 341.5H655.034C670.489 387.229 688.988 427.009 710.203 461.309Z" fill="#1E316C"/>
<path d="M603.421 438.882L558.75 429.5V341.5H587.379C591.899 374.803 597.154 407.184 603.421 438.882Z" fill="#1E316C"/>
<path d="M582.16 299.97L558.75 295V222H574.219C576.6 248.621 579.208 274.579 582.16 299.97Z" fill="#1E316C"/>
<path d="M572.007 196.314L558.75 193V146H568.084C569.338 163.045 570.637 179.809 572.007 196.314Z" fill="#1E316C"/>
<path d="M619.452 484C639.399 566.921 667.639 645.878 709.5 726.5L799.5 726.554C725.856 654.731 679.808 578.27 647.985 484H619.452Z" fill="#E46713"/>
<path d="M593.02 341.5C597.726 375.322 603.202 408.123 609.741 440.209L636.106 445.747C626.834 413.25 618.898 378.655 611.83 341.5H593.02Z" fill="#E46713"/>
<path d="M579.552 222C582.025 249.103 584.74 275.452 587.815 301.171L605.27 304.877C600.824 278.544 596.707 250.967 592.773 222H579.552Z" fill="#E46713"/>
<path d="M573.308 146C574.616 163.539 575.975 180.752 577.411 197.665L589.957 200.802C587.649 183.055 585.394 164.798 583.161 146H573.308Z" fill="#E46713"/>
<path d="M521.589 197.665C523.025 180.752 524.384 163.539 525.692 146H515.839C513.606 164.798 511.351 183.055 509.043 200.802L521.589 197.665Z" fill="#E46713"/>
<path d="M511.185 301.171C514.26 275.452 516.975 249.103 519.448 222H506.227C502.293 250.967 498.176 278.544 493.73 304.877L511.185 301.171Z" fill="#E46713"/>
<path d="M489.259 440.209C495.798 408.123 501.274 375.322 505.98 341.5H487.17C480.102 378.655 472.166 413.25 462.894 445.747L489.259 440.209Z" fill="#E46713"/>
<path d="M479.548 484C459.601 566.921 431.361 645.878 389.5 726.5L299.5 726.554C373.144 654.731 419.192 578.27 451.015 484H479.548Z" fill="#E46713"/>
<path d="M445.394 484C413.163 578.07 366.55 653.854 292 726.561L83 726.873C240.785 695.849 347.884 625.22 417.373 484H445.394Z" fill="#E46713"/>
<path d="M412.576 484C345.142 618.289 228.916 712.774 19 727C19 727 42.0121 696.193 79.5053 646C214.612 640.638 314.507 589.14 383.813 484H412.576Z" fill="#E46713"/>
<path d="M399.053 459.155L426.866 453.313C442.039 418.149 454.345 380.665 464.495 341.5H449.503C435.357 385.796 418.583 424.946 399.053 459.155Z" fill="#E46713"/>
<path d="M458.206 312.419C466.111 284.205 473.057 254.081 479.075 222H488.816C484.119 251.753 478.684 280.975 472.257 309.436L458.206 312.419Z" fill="#E46713"/>
<path d="M477.083 308.411C483.34 281.227 488.952 252.452 493.954 222H501.174C497.156 251.448 492.95 279.394 488.407 306.007L477.083 308.411Z" fill="#E46713"/>
<path d="M481.985 341.5C474.743 379.238 466.607 414.21 457.086 446.966L431.853 452.266C445.938 418.968 458.254 382.155 468.94 341.5H481.985Z" fill="#E46713"/>
<path d="M503.832 202.104L496.832 203.854C499.69 185.185 502.332 165.907 504.763 146H510.817C508.522 165.284 506.205 183.973 503.832 202.104Z" fill="#E46713"/>
<path d="M512.402 132.552L506.194 134.013C508.765 111.941 511.088 89.1109 513.172 65.4999L521.107 54.9999C518.185 81.8744 515.306 107.7 512.402 132.552Z" fill="#E46713"/>
<path d="M499.25 146C496.874 165.904 494.275 185.665 491.382 205.217L481.684 207.642C485.169 187.821 488.315 167.277 491.125 146H499.25Z" fill="#E46713"/>
<path d="M492.252 137.294L500.499 135.353C502.862 114.852 505.003 94.2112 507 73.4999L498 85.8056C496.284 103.417 494.369 120.578 492.252 137.294Z" fill="#E46713"/>
<path d="M517.565 131.338L526.928 129.135C529.022 100.063 531.006 70.0885 533 39.0829L527 47.113C523.822 76.3418 520.707 104.388 517.565 131.338Z" fill="#E46713"/>
<path d="M572.072 129.135L581.435 131.338C578.293 104.388 575.178 76.3418 572 47.113L566 39.0829C567.994 70.0885 569.978 100.063 572.072 129.135Z" fill="#E46713"/>
<path d="M586.598 132.552C583.694 107.7 580.815 81.8744 577.893 54.9999L585.828 65.4999C587.912 89.1109 590.235 111.941 592.806 134.013L586.598 132.552Z" fill="#E46713"/>
<path d="M598.501 135.353C596.138 114.852 593.997 94.2112 592 73.4999L601 85.8056C602.716 103.417 604.631 120.578 606.748 137.294L598.501 135.353Z" fill="#E46713"/>
<path d="M607.875 146H599.75C602.126 165.904 604.725 185.665 607.618 205.217L617.316 207.642C613.831 187.821 610.685 167.277 607.875 146Z" fill="#E46713"/>
<path d="M619.925 222C625.942 254.081 632.889 284.205 640.794 312.419L626.743 309.436C620.316 280.975 614.881 251.753 610.184 222H619.925Z" fill="#E46713"/>
<path d="M605.046 222C610.048 252.452 615.66 281.227 621.917 308.411L610.593 306.007C606.05 279.394 601.844 251.448 597.826 222H605.046Z" fill="#E46713"/>
<path d="M595.168 202.104C592.795 183.973 590.478 165.284 588.183 146H594.237C596.669 165.907 599.31 185.185 602.168 203.855L595.168 202.104Z" fill="#E46713"/>
<path d="M617.015 341.5H630.06C640.746 382.155 653.062 418.968 667.147 452.266L641.914 446.966C632.393 414.21 624.257 379.238 617.015 341.5Z" fill="#E46713"/>
<path d="M653.606 484C685.837 578.07 732.45 653.854 807 726.561L1016 726.873C858.215 695.849 751.116 625.22 681.627 484H653.606Z" fill="#E46713"/>
<path d="M686.424 484C753.858 618.289 870.084 712.774 1080 727C1080 727 1056.99 696.193 1019.49 646C884.388 640.638 784.493 589.14 715.187 484H686.424Z" fill="#E46713"/>
<path d="M672.134 453.313C656.961 418.149 644.655 380.665 634.505 341.5H649.497C663.643 385.796 680.417 424.946 699.947 459.155L672.134 453.313Z" fill="#E46713"/>
</svg>
